<?xml version="1.0" encoding="iso-8859-1"?>
<!-- Uploaded to: SVG Repo, www.svgrepo.com, Generator: SVG Repo Mixer Tools -->
<svg height="800px" width="800px" version="1.1" id="Layer_1" xmlns="http://www.w3.org/2000/svg" xmlns:xlink="http://www.w3.org/1999/xlink" 
	 viewBox="0 0 511.973 511.973" xml:space="preserve">
<path style="fill:#656D78;" d="M447.383,356.078c-1-7.593-3.719-18.39-11.016-26.654c-1.969-2.219-3.905-4.719-5.78-7.406
	l-14.296-92.69h-86.418l-14.265,92.487c-1.922,2.766-3.905,5.328-5.937,7.609c-7.297,8.265-10,19.062-11,26.654
	c-1.281,9.812-0.469,20.093,2.312,28.982c4.25,13.625,12.593,22.609,23.467,25.281l1.25,0.312h94.637l1.266-0.312
	c10.874-2.672,19.201-11.656,23.467-25.281C447.837,376.171,448.665,365.89,447.383,356.078z"/>
<g>
	<path style="fill:#434A54;" d="M328.233,239.99h89.715l16.389-14.593c1.734-1.944,2.688-4.468,2.688-7.069v-52.997
		c0-5.891-4.78-10.672-10.671-10.672h-106.65c-5.906,0-10.671,4.781-10.671,10.672v52.997c0,2.617,0.953,5.141,2.703,7.101
		L328.233,239.99z"/>
	<path style="fill:#434A54;" d="M154.367,48.001c0,5.891-4.765,10.663-10.655,10.663c-5.891,0-10.671-4.772-10.671-10.663
		s4.781-10.663,10.671-10.663C149.602,37.338,154.367,42.11,154.367,48.001z"/>
</g>
<path style="fill:#ED5564;" d="M185.85,90.139c0,23.279-18.858,42.153-42.138,42.153s-42.154-18.874-42.154-42.153
	c0-23.272,18.874-42.139,42.154-42.139C166.992,48.001,185.85,66.867,185.85,90.139z"/>
<path style="fill:#E6E9ED;" d="M214.505,340.032c-16.765-20.124-24.327-47.294-24.327-47.294
	c-18.812-86.777-5.422-134.306-5.422-134.306c3.031-36.99,17.952-67.988,17.952-67.988l-25.279-16.858l-16.858,16.858
	l-16.859-16.858l-16.859,16.858l-16.858-16.858L84.699,90.444c0,0,14.921,30.998,17.952,67.988c0,0,13.858,47.528-4.953,134.306
	c0,0-7.562,27.17-24.327,47.294c-15.39,18.452-11.64,65.106,9.796,70.7h121.541C226.145,405.138,229.895,358.484,214.505,340.032z"
	/>
<g>
	<path style="fill:#CCD1D9;" d="M194.272,303.956H93.136c-5.89,0-10.671-4.766-10.671-10.655c0-5.891,4.781-10.656,10.671-10.656
		h101.135c5.89,0,10.671,4.766,10.671,10.656C204.943,299.19,200.162,303.956,194.272,303.956z"/>
	<path style="fill:#CCD1D9;" d="M185.85,175.97h-84.292c-5.89,0-10.656-4.773-10.656-10.663c0-5.891,4.766-10.664,10.656-10.664
		h84.292c5.89,0,10.671,4.773,10.671,10.664C196.522,171.197,191.74,175.97,185.85,175.97z"/>
</g>
<path style="fill:#434A54;" d="M431.072,325.33H315.109c-5.89,0-10.655-4.781-10.655-10.688c0-5.874,4.766-10.655,10.655-10.655
	h115.963c5.89,0,10.671,4.781,10.671,10.655C441.743,320.548,436.962,325.33,431.072,325.33z"/>
<g>
	<path style="fill:#656D78;" d="M341.03,154.66v19.452c0,5.891,4.766,10.664,10.655,10.664l0,0c5.891,0,10.671-4.773,10.671-10.664
		V154.66H341.03z"/>
	<path style="fill:#656D78;" d="M383.7,155.831v18.452c0,5.891,4.765,10.672,10.655,10.672c5.89,0,10.671-4.781,10.671-10.672
		v-18.452c0-0.391-0.031-0.781-0.078-1.172h-21.186C383.716,155.049,383.7,155.44,383.7,155.831z"/>
</g>
<path style="fill:#965353;" d="M501.302,389.326H10.656C4.765,389.326,0,394.092,0,399.982v63.996
	c0,5.891,4.765,10.656,10.656,10.656h490.646c5.891,0,10.671-4.766,10.671-10.656v-63.996
	C511.973,394.091,507.193,389.326,501.302,389.326z"/>
<path style="fill:#FFCE54;" d="M263.518,424.449c4.172,4.156,4.172,10.906,0,15.078c-4.156,4.172-10.921,4.172-15.078,0
	c-4.171-4.172-4.171-10.922,0-15.078C252.597,420.262,259.362,420.262,263.518,424.449z"/>
</svg>