<?xml version="1.0" encoding="iso-8859-1"?>
<!-- Uploaded to: SVG Repo, www.svgrepo.com, Generator: SVG Repo Mixer Tools -->
<svg height="800px" width="800px" version="1.1" id="Layer_1" xmlns="http://www.w3.org/2000/svg" xmlns:xlink="http://www.w3.org/1999/xlink" 
	 viewBox="0 0 512 512" xml:space="preserve">
<circle style="fill:#EDEDEE;" cx="256" cy="256" r="256"/>
<g>
	<path style="fill:#DDDCDF;" d="M512,256c0,141.384-114.616,256-256,256V0C397.384,0,512,114.616,512,256z"/>
	<circle style="fill:#DDDCDF;" cx="256" cy="256" r="144.607"/>
</g>
<path style="fill:#CCCCCF;" d="M400.61,256c0,79.866-64.745,144.61-144.61,144.61V111.39C335.866,111.39,400.61,176.134,400.61,256z
	"/>
<path style="fill:#F7F7F8;" d="M399.176,165.06c0-0.016,0.001-0.032,0.001-0.048c0-61.934-50.207-112.141-112.141-112.141
	s-112.141,50.206-112.141,112.14c0,56.792,42.219,103.716,96.982,111.117c12.474,35.286,46.12,60.567,85.678,60.567
	c50.178,0,90.857-40.678,90.857-90.857C448.41,210.662,428.417,180.157,399.176,165.06z"/>
<circle style="fill:#F5DC49;" cx="287.032" cy="165.009" r="53.793"/>
<path style="fill:#ECAE44;" d="M287.036,111.22c29.708,0,53.791,24.083,53.791,53.791s-24.083,53.791-53.791,53.791
	C287.036,194.783,287.036,122.435,287.036,111.22z"/>
<path style="fill:#E3744E;" d="M348.718,415.505c-6.311,23.96-31.419,37.674-55.026,30.146
	c-48.539-15.478-91.6-34.182-130.704-56.712c-34.428-19.837-66.754-43.262-97.954-71.04c-18.678-16.629-19.417-45.587-1.589-63.124
	l0,0c16.239-15.974,42.09-16.598,59.087-1.431c26.752,23.873,53.939,43.55,83.633,60.66c33.734,19.437,71.276,35.695,113.94,49.293
	c21.907,6.982,34.479,29.935,28.623,52.171L348.718,415.505z"/>
<path style="fill:#E05323;" d="M348.718,415.505c-6.311,23.96-31.419,37.674-55.026,30.146
	c-48.539-15.478-91.6-34.182-130.704-56.712c-34.428-19.837-66.754-43.262-97.954-71.04c-18.678-16.629-19.417-45.587-1.589-63.124
	C146.543,341.163,241.987,393.777,348.718,415.505z"/>
</svg>