<?xml version="1.0" encoding="iso-8859-1"?>
<!-- Uploaded to: SVG Repo, www.svgrepo.com, Generator: SVG Repo Mixer Tools -->
<svg height="800px" width="800px" version="1.1" id="Layer_1" xmlns="http://www.w3.org/2000/svg" xmlns:xlink="http://www.w3.org/1999/xlink" 
	 viewBox="0 0 512 512" xml:space="preserve">
<path style="fill:#F7222B;" d="M489.204,324.678c7.504,5.933,12.319,15.118,12.319,25.427l0,0c0,17.892-14.505,32.396-32.396,32.396
	h-66.509H148.388H42.874c-17.892,0-32.396-14.505-32.396-32.396l0,0c0-10.649,5.138-20.098,13.071-26.003L489.204,324.678z"/>
<path style="fill:#ED732F;" d="M476.448,230.927c13.849,0,25.075,11.226,25.075,25.075l0,0c0,13.848-11.226,25.075-25.075,25.075
	H35.552c-13.849,0-25.075-11.226-25.075-25.075l0,0c0-13.849,11.226-25.075,25.075-25.075h55.373L476.448,230.927L476.448,230.927z"
	/>
<g>
	<path style="fill:#FF9D3B;" d="M491.075,378.762v26.642c0,46.738-37.889,84.627-84.627,84.627H105.552
		c-46.738,0-84.627-37.889-84.627-84.627v-26.642H491.075z"/>
	<path style="fill:#FF9D3B;" d="M335.925,230.927H52.269c-23.08,0-41.791-18.711-41.791-41.791l0,0
		c0-92.323,74.842-167.164,167.164-167.164h156.716c92.323,0,167.164,74.842,167.164,167.164l0,0
		c0,23.08-18.711,41.791-41.791,41.791h-51.194H335.925z"/>
</g>
<path style="fill:#21CC5A;" d="M15.213,276.457c-13.302,23.376,5.186,43.848,9.628,46.914c12.413,8.566,28.841,8.526,41.235-0.068
	c12.491-8.6,28.995-8.6,41.485,0.001l0.007,0.005c12.491,8.601,28.994,8.602,41.485,0.001l0,0c12.491-8.6,28.995-8.6,41.485,0.001
	c12.493,8.603,29.001,8.594,41.486-0.019l0.006-0.004c7.169-4.936,15.658-7.022,23.953-6.292v0.002
	c0.005-0.001,0.012-0.001,0.017-0.001c0.005,0,0.012,0.001,0.017,0.001v-0.002c8.294-0.73,16.784,1.356,23.953,6.292l0.006,0.004
	c12.485,8.614,28.993,8.622,41.486,0.019c12.491-8.601,28.994-8.602,41.485-0.001l0,0c12.491,8.601,28.995,8.6,41.485-0.001
	l0.007-0.005c12.491-8.601,28.994-8.602,41.485-0.001c12.394,8.594,28.821,8.634,41.235,0.068
	c4.441-3.064,22.93-23.537,9.628-46.914L15.213,276.457L15.213,276.457z"/>
<polygon style="fill:#FFE48D;" points="185.017,320.609 333.565,429.434 472.19,329.772 434.134,324.678 "/>
<path d="M502.046,322.688c7.983-10.999,14.958-29.25,5.14-48.917c3.036-5.231,4.784-11.298,4.784-17.771
	c0-12.283-6.269-23.128-15.773-29.51c9.722-9.492,15.773-22.727,15.773-37.356c0-97.935-79.677-177.612-177.612-177.612H177.642
	C79.707,11.522,0.03,91.199,0.03,189.134c0,14.628,6.051,27.863,15.773,37.356C6.299,232.872,0.03,243.717,0.03,256
	c0,6.471,1.748,12.538,4.784,17.771c-9.821,19.675-2.838,37.932,5.149,48.929c-6.329,7.63-9.933,17.342-9.933,27.405
	c0,10.71,3.96,20.507,10.479,28.026c-0.013,0.21-0.031,0.418-0.031,0.631v26.642c0,52.425,42.65,95.075,95.075,95.075h300.896
	c52.425,0,95.075-42.65,95.075-95.075v-26.642c0-0.213-0.02-0.421-0.031-0.631c6.519-7.519,10.479-17.316,10.479-28.026
	C511.97,339.927,508.42,330.313,502.046,322.688z M226.113,337.764c4.127-1.361,8.099-3.298,11.778-5.828
	c0.022-0.015,0.042-0.028,0.064-0.044c4.98-3.428,11.063-5.024,17.109-4.487c0.51,0.046,1.023,0.052,1.534,0.022
	c0,0,0.002,0,0.003,0c0.11-0.006,0.221-0.015,0.332-0.024c6.051-0.531,12.132,1.063,17.111,4.489c0.02,0.014,0.04,0.027,0.06,0.041
	c15.942,10.961,37.346,10.957,53.284-0.018c8.862-6.102,20.771-6.104,29.635,0c15.952,10.982,37.384,10.982,53.336-0.002
	c0.014-0.009,0.027-0.02,0.042-0.029c8.859-6.077,20.748-6.071,29.571,0.003c2.015,1.397,4.118,2.616,6.287,3.66l-112.635,80.976
	L226.113,337.764z M30.844,314.821c-0.154-0.117-12.603-11.486-9.3-26.182c4.3,1.852,9.035,2.884,14.007,2.884h440.896
	c4.972,0,9.707-1.031,14.008-2.884c3.304,14.696-9.138,26.059-9.23,26.132c-8.775,6.054-20.57,6.033-29.376-0.075
	c-15.952-10.982-37.383-10.981-53.335,0.001c-0.011,0.007-0.022,0.016-0.034,0.023c-8.859,6.085-20.752,6.078-29.608-0.018
	c-15.953-10.982-37.386-10.982-53.335,0.001c-8.865,6.104-20.771,6.098-29.628-0.014c-0.022-0.016-0.044-0.03-0.067-0.046
	c-8.712-5.981-19.259-8.854-29.829-8.128c-10.563-0.73-21.134,2.141-29.851,8.125c-0.024,0.017-0.048,0.032-0.071,0.049
	c-8.857,6.111-20.764,6.116-29.628,0.014c-15.95-10.983-37.383-10.984-53.335-0.001c-8.852,6.095-20.746,6.103-29.607,0.019
	c-0.013-0.008-0.023-0.017-0.036-0.024c-15.952-10.983-37.383-10.983-53.363,0.019C51.342,320.803,39.547,320.826,30.844,314.821z
	 M477.361,338.922c2.932-0.687,5.806-1.661,8.581-2.918c3.295,3.917,5.132,8.863,5.132,14.1c0,12.103-9.846,21.949-21.949,21.949
	h-37.849L477.361,338.922z M335.925,241.374c5.769,0,10.448-4.677,10.448-10.448s-4.678-10.448-10.448-10.448H52.269
	c-17.283,0-31.343-14.061-31.343-31.343c0-86.413,70.303-156.716,156.716-156.716h156.716c86.413,0,156.716,70.303,156.716,156.716
	c0,17.283-14.061,31.343-31.343,31.343h-51.194c-5.769,0-10.448,4.677-10.448,10.448s4.678,10.448,10.448,10.448
	c0,0,66.064,0,67.91,0c8.066,0,14.627,6.561,14.627,14.627c0,8.066-6.561,14.627-14.627,14.627H35.552
	c-8.066,0-14.627-6.561-14.627-14.627s6.561-14.627,14.627-14.627L335.925,241.374L335.925,241.374z M406.448,479.583H105.552
	c-40.902,0-74.179-33.277-74.179-74.179v-14.036c3.663,1.023,7.516,1.581,11.501,1.581h105.514c5.769,0,10.448-4.677,10.448-10.448
	c0-5.77-4.679-10.448-10.448-10.448H42.874c-12.103,0-21.949-9.846-21.949-21.949c0-5.265,1.824-10.199,5.118-14.106
	c6.127,2.779,12.742,4.175,19.362,4.175c9.325,0,18.65-2.757,26.594-8.266c8.85-6.094,20.74-6.102,29.597-0.025
	c0.016,0.01,0.029,0.021,0.044,0.03c15.953,10.984,37.385,10.984,53.336,0.002c6.997-4.817,15.888-5.814,23.684-3.026
	c0.063,0.048,0.118,0.101,0.182,0.147l58.717,43.016h-19.87c-5.769,0-10.448,4.677-10.448,10.448s4.678,10.448,10.448,10.448h46.707
	c0.517,0,1.022-0.05,1.518-0.122l61.475,45.036c1.838,1.347,4.006,2.02,6.175,2.02c2.138,0,4.276-0.654,6.098-1.964l62.576-44.988
	c0.126,0.004,0.25,0.019,0.377,0.019h66.509c3.984,0,7.838-0.558,11.501-1.581v14.036
	C480.627,446.306,447.35,479.583,406.448,479.583z"/>
<path d="M131.672,161.269c-5.769,0-10.448,4.677-10.448,10.448v0.651c0,5.77,4.679,10.448,10.448,10.448s10.448-4.677,10.448-10.448
	v-0.651C142.119,165.947,137.441,161.269,131.672,161.269z"/>
<path d="M193.836,142.463c-5.769,0-10.448,4.677-10.448,10.448v0.651c0,5.77,4.678,10.448,10.448,10.448
	c5.769,0,10.448-4.677,10.448-10.448v-0.651C204.284,147.141,199.605,142.463,193.836,142.463z"/>
<path d="M69.507,142.463c-5.769,0-10.448,4.677-10.448,10.448v0.651c0,5.77,4.679,10.448,10.448,10.448s10.448-4.677,10.448-10.448
	v-0.651C79.955,147.141,75.277,142.463,69.507,142.463z"/>
<path d="M256,161.269c-5.769,0-10.448,4.677-10.448,10.448v0.651c0,5.77,4.678,10.448,10.448,10.448s10.448-4.677,10.448-10.448
	v-0.651C266.448,165.947,261.769,161.269,256,161.269z"/>
<path d="M318.164,142.463c-5.769,0-10.448,4.677-10.448,10.448v0.651c0,5.77,4.678,10.448,10.448,10.448s10.448-4.677,10.448-10.448
	v-0.651C328.612,147.141,323.934,142.463,318.164,142.463z"/>
<path d="M380.328,182.816c5.769,0,10.448-4.677,10.448-10.448v-0.651c0-5.77-4.678-10.448-10.448-10.448
	c-5.769,0-10.448,4.677-10.448,10.448v0.651C369.881,178.138,374.558,182.816,380.328,182.816z"/>
<path d="M442.493,164.01c5.769,0,10.448-4.677,10.448-10.448v-0.651c0-5.77-4.678-10.448-10.448-10.448s-10.448,4.677-10.448,10.448
	v0.651C432.045,159.332,436.722,164.01,442.493,164.01z"/>
<path d="M161.448,83.924c-5.769,0-10.448,4.677-10.448,10.448v0.651c0,5.77,4.679,10.448,10.448,10.448s10.448-4.677,10.448-10.448
	v-0.651C171.896,88.602,167.217,83.924,161.448,83.924z"/>
<path d="M223.612,102.73c-5.769,0-10.448,4.677-10.448,10.448v0.651c0,5.77,4.679,10.448,10.448,10.448s10.448-4.677,10.448-10.448
	v-0.651C234.06,107.408,229.381,102.73,223.612,102.73z"/>
<path d="M285.776,83.924c-5.769,0-10.448,4.677-10.448,10.448v0.651c0,5.77,4.679,10.448,10.448,10.448s10.448-4.677,10.448-10.448
	v-0.651C296.224,88.602,291.545,83.924,285.776,83.924z"/>
<path d="M358.388,113.829v-0.651c0-5.77-4.679-10.448-10.448-10.448s-10.448,4.677-10.448,10.448v0.651
	c0,5.77,4.678,10.448,10.448,10.448S358.388,119.599,358.388,113.829z"/>
<path d="M183.214,372.053h-0.392c-5.769,0-10.448,4.677-10.448,10.448s4.678,10.448,10.448,10.448h0.392
	c5.769,0,10.448-4.677,10.448-10.448S188.983,372.053,183.214,372.053z"/>
<path d="M371.35,241.374h0.327c5.769,0,10.448-4.677,10.448-10.448s-4.679-10.448-10.448-10.448h-0.327
	c-5.769,0-10.448,4.677-10.448,10.448S365.58,241.374,371.35,241.374z"/>
</svg>