<?xml version="1.0" encoding="iso-8859-1"?>
<!-- Uploaded to: SVG Repo, www.svgrepo.com, Generator: SVG Repo Mixer Tools -->
<svg height="800px" width="800px" version="1.1" id="Layer_1" xmlns="http://www.w3.org/2000/svg" xmlns:xlink="http://www.w3.org/1999/xlink" 
	 viewBox="0 0 512 512" xml:space="preserve">
<path style="fill:#E6E6E6;" d="M143.689,304.14c-10.762,0-24.01-2.373-36.786-10.934c-32.074-21.494-29.095-61.117-28.953-62.794
	c2.108-24.763,17.813-41.76,24.468-47.919c26.449-24.473,58.97-19.741,96.627-14.263c35.723,5.197,76.212,11.088,123.953-4.751
	c17.366-5.763,49.691-16.488,72.482-47.314c22.758-30.782,25.353-66.145,23.522-90.388c-0.357-4.727,3.185-8.848,7.913-9.205
	c4.729-0.358,8.849,3.186,9.205,7.913c1.679,22.224,0.425,65.014-26.836,101.886c-26.025,35.2-63.074,47.493-80.88,53.401
	c-51.597,17.119-96.084,10.646-131.83,5.447c-36.031-5.242-62.065-9.031-82.496,9.875c-5.187,4.799-17.424,17.993-19.023,36.774
	c-0.026,0.31-2.359,31.154,21.404,47.077c18.458,12.37,39.126,6.989,43.081,5.787c4.538-1.381,9.331,1.178,10.711,5.712
	c1.38,4.536-1.178,9.33-5.713,10.71C161.041,302.219,153.371,304.14,143.689,304.14z"/>
<path style="fill:#FFDB6C;" d="M221.786,145.074c-4.74,0-8.584-3.842-8.584-8.584v-27.669c0-4.742,3.843-8.584,8.584-8.584
	c4.74,0,8.584,3.842,8.584,8.584v27.669C230.369,141.232,226.526,145.074,221.786,145.074z"/>
<path style="fill:#634E9B;" d="M337.031,473.087H107.218c-17.577,0-31.825,14.249-31.825,31.825l0,0c0,3.898,3.19,7.088,7.088,7.088
	h279.289c3.898,0,7.088-3.19,7.088-7.088l0,0C368.857,487.336,354.608,473.087,337.031,473.087z"/>
<path style="fill:#FFDB6C;" d="M148.12,473.092c-14.728-16.686-23.665-38.604-23.665-62.61c0-52.275,42.377-94.65,94.65-94.65
	s94.65,42.377,94.65,94.65c0,24.006-8.936,45.924-23.665,62.609"/>
<path style="fill:#FFB04C;" d="M219.106,315.831c-6.519,0-12.884,0.66-19.033,1.915c43.152,8.809,75.619,46.981,75.619,92.736
	c0,24.006-8.936,45.924-23.665,62.609H148.119l0,0l141.973-0.001c14.727-16.686,23.665-38.604,23.665-62.609
	C313.757,358.208,271.381,315.831,219.106,315.831z"/>
<path style="fill:#6EAECD;" d="M259.321,315.831H184.93c-12.642,0-22.89-10.248-22.89-22.89l0,0c0-12.642,10.248-22.89,22.89-22.89
	h74.392c12.642,0,22.89,10.248,22.89,22.89l0,0C282.21,305.583,271.962,315.831,259.321,315.831z"/>
<path style="fill:#5388B4;" d="M259.32,270.051h-28.231c12.642,0,22.89,10.248,22.89,22.89l0,0c0,12.642-10.248,22.89-22.89,22.89
	h28.231c12.642,0,22.89-10.248,22.89-22.89l0,0C282.21,280.3,271.962,270.051,259.32,270.051z"/>
<path style="fill:#634E9B;" d="M276.203,108.822H168.048c-12.642,0-22.89-10.248-22.89-22.89v-4.359
	c0-2.649,2.147-4.797,4.797-4.797h144.341c2.65,0,4.797,2.147,4.797,4.797v4.359C299.091,98.574,288.843,108.822,276.203,108.822z"
	/>
<path style="fill:#4C3A7A;" d="M269.813,76.776v9.156c0,12.642-10.248,22.89-22.89,22.89h29.279c12.642,0,22.89-10.248,22.89-22.89
	v-4.359c0-2.649-2.147-4.797-4.797-4.797H269.813z"/>
<path style="fill:#EE3446;" d="M183.784,270.051c0-21.175,17.165-38.34,38.34-38.34s38.34,17.165,38.34,38.34"/>
<path style="fill:#BA2C53;" d="M222.124,231.711c-4.119,0-8.084,0.657-11.803,1.86c15.398,4.979,26.538,19.425,26.538,36.481h23.605
	C260.465,248.877,243.3,231.711,222.124,231.711z"/>
<g>
	<circle style="fill:#42A555;" cx="221.78" cy="207.828" r="23.885"/>
	<circle style="fill:#42A555;" cx="222.306" cy="160.057" r="23.885"/>
</g>
<g>
	<path style="fill:#427451;" d="M221.786,183.94c-3.327,0-6.493,0.683-9.371,1.912c8.533,3.644,14.516,12.109,14.516,21.974
		s-5.982,18.33-14.516,21.974c2.877,1.229,6.044,1.912,9.371,1.912c13.191,0,23.885-10.694,23.885-23.887
		C245.672,194.634,234.978,183.94,221.786,183.94z"/>
	<path style="fill:#427451;" d="M222.306,136.168c-3.327,0-6.493,0.683-9.371,1.912c8.533,3.644,14.516,12.109,14.516,21.974
		s-5.982,18.33-14.516,21.973c2.877,1.229,6.044,1.912,9.371,1.912c13.191,0,23.885-10.694,23.885-23.885
		C246.192,146.862,235.498,136.168,222.306,136.168z"/>
</g>
<path style="fill:#FFDB6C;" d="M245.672,76.776H197.9l-23.563-66.217C172.505,5.41,176.322,0,181.787,0h76.957
	c5.328,0,9.131,5.161,7.552,10.249L245.672,76.776z"/>
<path style="fill:#FFB04C;" d="M244.052,0L220.25,76.776h25.421l20.625-66.528C267.874,5.161,264.071,0,258.743,0H244.052z"/>
<path style="fill:#4C3A7A;" d="M337.031,473.087h-47.196c17.455,0,31.605,14.149,31.605,31.605V512h40.33
	c3.914,0,7.088-3.174,7.088-7.088l0,0C368.857,487.336,354.608,473.087,337.031,473.087z"/>
</svg>