<?xml version="1.0" encoding="iso-8859-1"?>
<!-- Uploaded to: SVG Repo, www.svgrepo.com, Generator: SVG Repo Mixer Tools -->
<svg height="800px" width="800px" version="1.1" id="Layer_1" xmlns="http://www.w3.org/2000/svg" xmlns:xlink="http://www.w3.org/1999/xlink" 
	 viewBox="0 0 512.001 512.001" xml:space="preserve">
<path style="fill:#FF709D;" d="M18.062,456.2c-24.053-24.053-24.053-63.191,0-87.244l155.941-155.942
	c17.58-17.58,17.578-46.182,0-63.76s-46.182-17.58-63.76,0l-96.069,96.069c-3.242,3.242-8.5,3.242-11.742,0
	c-3.242-3.242-3.242-8.499,0-11.742l96.069-96.069c24.053-24.053,63.191-24.053,87.244,0s24.053,63.191,0,87.244L29.803,380.697
	c-17.58,17.58-17.578,46.182,0,63.76c17.578,17.578,46.182,17.58,63.76,0l26.249-26.249c3.242-3.242,8.5-3.242,11.742,0
	s3.242,8.499,0,11.742L105.306,456.2C81.252,480.252,42.114,480.252,18.062,456.2z"/>
<polygon style="fill:#459492;" points="278.226,189.588 80.673,410.381 139.382,469.09 360.175,271.538 "/>
<path style="fill:#57BAB7;" d="M313.552,150.105l-35.326,39.482c7.015,18.059,17.802,34.991,32.382,49.569
	c14.578,14.578,31.51,25.365,49.569,32.382l39.482-35.326L313.552,150.105z"/>
<circle style="fill:#9AD6D4;" cx="412.368" cy="137.394" r="99.632"/>
<path style="fill:#57BAB7;" d="M478.674,215.905L333.858,71.09c-3.242-3.242-3.242-8.499,0-11.742c3.242-3.242,8.5-3.242,11.742,0
	l144.816,144.816c3.242,3.242,3.242,8.499,0,11.742C487.172,219.148,481.916,219.148,478.674,215.905z"/>
<g>
	<circle style="fill:#459492;" cx="471.384" cy="149.671" r="8.303"/>
	<circle style="fill:#459492;" cx="471.384" cy="102.711" r="8.303"/>
</g>
</svg>