<?xml version="1.0" ?>
<!-- Uploaded to: SVG Repo, www.svgrepo.com, Generator: SVG Repo Mixer Tools -->
<svg width="800px" height="800px" viewBox="0 0 120 120" id="Layer_1" version="1.1" xml:space="preserve" xmlns="http://www.w3.org/2000/svg" xmlns:xlink="http://www.w3.org/1999/xlink">
<style type="text/css">
	.st0{fill:#00CB72;}
	.st1{opacity:0.1;}
	.st2{fill:#009A64;}
	.st3{fill:#FFFFFF;}
</style>
<g>
<path class="st0" d="M100.4,97.2H19.6c-2.3,0-4.1-1.8-4.1-4.1V57.5c0-2.3,1.8-4.1,4.1-4.1h80.7c2.3,0,4.1,1.8,4.1,4.1v35.6   C104.5,95.3,102.6,97.2,100.4,97.2z"/>
<path class="st1" d="M102.5,96.2h-80c-2.5,0-4.5-2-4.5-4.5V56.8c0-1.4,0.7-2.6,1.7-3.5c-2.3,0.1-4.2,2.1-4.2,4.5v34.9   c0,2.5,2,4.5,4.5,4.5h80c1.1,0,2.1-0.4,2.8-1C102.7,96.2,102.6,96.2,102.5,96.2z"/>
<path class="st2" d="M57,33.5L37.1,53.4h4.6L60,35.1l18.3,18.3h4.6L63,33.5c1.6-1,2.8-2.8,2.8-4.9c0-3.2-2.6-5.8-5.8-5.8   c-3.2,0-5.8,2.6-5.8,5.8C54.2,30.7,55.3,32.5,57,33.5z M60,26.1c1.4,0,2.5,1.1,2.5,2.5s-1.1,2.5-2.5,2.5c-1.4,0-2.5-1.1-2.5-2.5   S58.6,26.1,60,26.1z"/>
<g>
<path class="st3" d="M41.6,69.3c-0.8-0.8-1.8-1.3-2.9-1.7c-1.1-0.4-2.3-0.6-3.6-0.6c-1.3,0-2.5,0.2-3.6,0.6    c-1.1,0.4-2.1,1-2.9,1.7c-0.8,0.8-1.4,1.6-1.9,2.6c-0.4,1-0.7,2.1-0.7,3.3c0,1.2,0.2,2.3,0.7,3.3c0.4,1,1.1,1.9,1.9,2.7    c0.8,0.8,1.8,1.3,2.9,1.7c1.1,0.4,2.3,0.6,3.6,0.6c1.3,0,2.5-0.2,3.6-0.6c1.1-0.4,2-1,2.9-1.7c0.8-0.8,1.4-1.6,1.9-2.7    c0.4-1,0.7-2.1,0.7-3.3c0-1.2-0.2-2.3-0.7-3.3C43,70.9,42.4,70,41.6,69.3z M38.4,76.9c-0.2,0.5-0.4,0.9-0.8,1.3    c-0.3,0.3-0.7,0.6-1.1,0.8c-0.4,0.2-0.9,0.3-1.4,0.3c-0.5,0-1-0.1-1.4-0.3c-0.4-0.2-0.8-0.4-1.1-0.8c-0.3-0.3-0.6-0.8-0.8-1.3    c-0.2-0.5-0.3-1.1-0.3-1.7c0-0.6,0.1-1.2,0.3-1.7c0.2-0.5,0.4-0.9,0.8-1.3c0.3-0.3,0.7-0.6,1.1-0.8c0.4-0.2,0.9-0.3,1.4-0.3    c0.5,0,1,0.1,1.4,0.3c0.4,0.2,0.8,0.4,1.1,0.8c0.3,0.3,0.6,0.8,0.8,1.3c0.2,0.5,0.3,1.1,0.3,1.7C38.7,75.9,38.6,76.5,38.4,76.9z"/>
<path class="st3" d="M57.6,68c-1.1-0.5-2.4-0.7-3.9-0.7h-7.7v16h5.4v-3.9h2.3c1.5,0,2.8-0.2,3.9-0.7c1.1-0.5,1.9-1.2,2.5-2.1    c0.6-0.9,0.9-2,0.9-3.2c0-1.2-0.3-2.3-0.9-3.2C59.6,69.2,58.7,68.5,57.6,68z M55.1,74.7c-0.4,0.3-0.9,0.5-1.7,0.5h-2v-3.7h2    c0.7,0,1.3,0.2,1.7,0.5c0.4,0.3,0.5,0.8,0.5,1.4C55.6,73.9,55.4,74.3,55.1,74.7z"/>
<polygon class="st3" points="68.1,77.1 74.9,77.1 74.9,73.2 68.1,73.2 68.1,71.3 75.8,71.3 75.8,67.3 62.8,67.3 62.8,83.3     76.1,83.3 76.1,79.2 68.1,79.2   "/>
<polygon class="st3" points="88.7,67.3 88.7,74.5 82.6,67.3 78.2,67.3 78.2,83.3 83.4,83.3 83.4,76 89.5,83.3 93.9,83.3     93.9,67.3   "/>
</g>
</g>
</svg>