<?xml version="1.0" encoding="iso-8859-1"?>
<!-- Uploaded to: SVG Repo, www.svgrepo.com, Generator: SVG Repo Mixer Tools -->
<svg height="800px" width="800px" version="1.1" id="Layer_1" xmlns="http://www.w3.org/2000/svg" xmlns:xlink="http://www.w3.org/1999/xlink" 
	 viewBox="0 0 512 512" xml:space="preserve">
<g transform="translate(0 -1)">
	<g>
		<path style="fill:#BDC3C7;" d="M498.977,513c-3.697,0-7.116-2.369-8.279-6.092l-43.39-138.847
			c-1.432-4.573,1.119-9.442,5.693-10.865c4.556-1.423,9.442,1.111,10.873,5.693l43.39,138.847
			c1.432,4.573-1.119,9.442-5.693,10.865C500.713,512.87,499.837,513,498.977,513"/>
		<path style="fill:#BDC3C7;" d="M412.211,513c-0.703,0-1.406-0.087-2.117-0.26c-4.643-1.163-7.472-5.875-6.309-10.518
			l34.712-138.847c1.163-4.66,5.892-7.48,10.526-6.318c4.643,1.163,7.472,5.875,6.309,10.518L420.62,506.422
			C419.63,510.371,416.099,513,412.211,513"/>
		<path style="fill:#BDC3C7;" d="M99.791,513c-3.697,0-7.116-2.369-8.279-6.092l-43.39-138.847
			c-1.432-4.573,1.119-9.442,5.693-10.865c4.556-1.423,9.442,1.111,10.873,5.693l43.39,138.847
			c1.432,4.573-1.119,9.442-5.693,10.865C101.527,512.87,100.65,513,99.791,513"/>
		<path style="fill:#BDC3C7;" d="M13.024,513c-0.703,0-1.406-0.087-2.117-0.26c-4.643-1.163-7.472-5.875-6.309-10.518L39.31,363.375
			c1.163-4.66,5.892-7.48,10.526-6.318c4.643,1.163,7.472,5.875,6.309,10.518L21.433,506.422C20.444,510.371,16.912,513,13.024,513"
			/>
		<path style="fill:#BDC3C7;" d="M255.999,287.373c-4.79,0-8.678-3.879-8.678-8.678V122.492c0-4.799,3.888-8.678,8.678-8.678
			s8.678,3.879,8.678,8.678v156.203C264.677,283.494,260.789,287.373,255.999,287.373"/>
	</g>
	<g>
		<path style="fill:#C03A2B;" d="M125.829,365.475H42.226c-20.923,0-37.888-16.965-37.888-37.888v-83.604h2.378
			c65.788,0,119.114,53.326,119.114,119.114V365.475z"/>
		<path style="fill:#C03A2B;" d="M386.168,365.475h83.604c20.923,0,37.888-16.965,37.888-37.888v-83.604h-2.378
			c-65.788,0-119.114,53.326-119.114,119.114V365.475z"/>
	</g>
	<path style="fill:#603A21;" d="M160.541,504.322h190.915c-43.138,0-78.102-34.964-78.102-78.102v-78.102h26.034v-34.712h-86.78
		v34.712h26.034v78.102C238.643,469.358,203.679,504.322,160.541,504.322"/>
	<g>
		<path style="fill:#805333;" d="M421.249,278.695h-330.5c9.997,9.954,18.146,21.73,24.116,34.712h282.268
			C403.103,300.425,411.252,288.649,421.249,278.695"/>
		<path style="fill:#805333;" d="M368.812,513H143.185c-4.79,0-8.678-3.879-8.678-8.678c0-4.799,3.888-8.678,8.678-8.678h225.627
			c4.79,0,8.678,3.879,8.678,8.678C377.49,509.121,373.603,513,368.812,513"/>
	</g>
	<path style="fill:#F29C1F;" d="M485.232,122.492H26.766c-5.45,0-7.142-7.376-2.23-9.754L256.003,1l231.459,111.737
		C492.374,115.115,490.681,122.492,485.232,122.492"/>
</g>
</svg>